<svg xmlns="http://www.w3.org/2000/svg" width="712" height="1017" viewBox="0 0 712 1017" role="img" aria-label="DeepSeek++ 自动化任务侧边栏截图">
  <defs>
    <filter id="cardShadow" x="-10%" y="-10%" width="120%" height="120%">
      <feDropShadow dx="0" dy="10" stdDeviation="10" flood-color="#1d2b54" flood-opacity="0.08"/>
    </filter>
    <linearGradient id="brand" x1="0" y1="0" x2="1" y2="1">
      <stop offset="0" stop-color="#6875ff"/>
      <stop offset="1" stop-color="#4f64f5"/>
    </linearGradient>
  </defs>

  <rect width="712" height="1017" fill="#ffffff"/>
  <rect x="5" y="12" width="702" height="1014" rx="28" fill="#ffffff" stroke="#e7e9f2" stroke-width="2"/>

  <g transform="translate(45 40)">
    <rect x="0" y="0" width="54" height="54" rx="13" fill="url(#brand)"/>
    <text x="27" y="36" text-anchor="middle" font-family="-apple-system,BlinkMacSystemFont,'Segoe UI',sans-serif" font-size="24" font-weight="700" fill="#ffffff">D+</text>
    <text x="74" y="39" font-family="-apple-system,BlinkMacSystemFont,'Segoe UI',sans-serif" font-size="30" font-weight="700" fill="#24242b">DeepSeek++</text>
    <rect x="533" y="9" width="84" height="38" rx="19" fill="#f7f8fb"/>
    <text x="575" y="35" text-anchor="middle" font-family="-apple-system,BlinkMacSystemFont,'Segoe UI',sans-serif" font-size="20" font-weight="500" fill="#a6abb7">v0.1.0</text>
  </g>

  <line x1="5" y1="121" x2="707" y2="121" stroke="#e6e8ef" stroke-width="2"/>

  <g transform="translate(51 160)" font-family="-apple-system,BlinkMacSystemFont,'Segoe UI',sans-serif" font-size="25" font-weight="650">
    <g fill="#7d8392">
      <rect x="0" y="-1" width="18" height="18" rx="4" fill="none" stroke="#7d8392" stroke-width="3"/>
      <circle cx="9" cy="8" r="4" fill="none" stroke="#7d8392" stroke-width="2"/>
      <text x="36" y="18">记忆</text>
    </g>
    <g transform="translate(139 0)" fill="#7d8392">
      <path d="M13 -3 3 17h10l-4 17 18-24H15l5-13z" fill="none" stroke="#7d8392" stroke-width="3" stroke-linejoin="round"/>
      <text x="38" y="18">Skill</text>
    </g>
    <g transform="translate(278 0)" fill="#7d8392">
      <path d="M0 -8h18l11 11v32H0z" fill="none" stroke="#7d8392" stroke-width="3" stroke-linejoin="round"/>
      <path d="M18 -8v12h11M7 13h15M7 24h15" stroke="#7d8392" stroke-width="3" stroke-linecap="round"/>
      <text x="42" y="18">预设</text>
    </g>
    <g transform="translate(430 0)" fill="#5668f5">
      <circle cx="11" cy="10" r="10" fill="none" stroke="#5668f5" stroke-width="3"/>
      <path d="M11 3v8l6 3" fill="none" stroke="#5668f5" stroke-width="3" stroke-linecap="round" stroke-linejoin="round"/>
      <text x="38" y="18">自动化</text>
      <rect x="24" y="43" width="62" height="4" rx="2" fill="#5668f5"/>
    </g>
  </g>

  <line x1="5" y1="207" x2="707" y2="207" stroke="#e6e8ef" stroke-width="2"/>

  <g transform="translate(38 248)" font-family="-apple-system,BlinkMacSystemFont,'Segoe UI',sans-serif">
    <text x="0" y="22" font-size="27" font-weight="700" fill="#202027">自动化</text>
    <text x="0" y="56" font-size="22" font-weight="500" fill="#a3a8b5">1 个任务，0 个启用</text>
    <rect x="509" y="2" width="124" height="54" rx="16" fill="#5266f6" filter="url(#cardShadow)"/>
    <text x="548" y="37" font-size="34" font-weight="400" fill="#ffffff">+</text>
    <text x="583" y="36" font-size="24" font-weight="600" fill="#ffffff">新建</text>
  </g>

  <g transform="translate(38 338)" filter="url(#cardShadow)">
    <rect x="0" y="0" width="636" height="426" rx="24" fill="#ffffff" stroke="#e4e6ee" stroke-width="2"/>
  </g>

  <g transform="translate(63 369)" font-family="-apple-system,BlinkMacSystemFont,'Segoe UI',sans-serif">
    <text x="0" y="24" font-size="26" font-weight="700" fill="#24242b">测试自动化</text>
    <rect x="149" y="-3" width="70" height="38" rx="19" fill="#f6f7fb"/>
    <text x="184" y="23" text-anchor="middle" font-size="22" font-weight="600" fill="#b5bac5">暂停</text>
    <text x="0" y="64" font-size="22" font-weight="600" fill="#7a8190">回复：123，收到</text>

    <g transform="translate(424 3)" fill="none" stroke="#9aa1ae" stroke-width="3" stroke-linecap="round" stroke-linejoin="round">
      <path d="M0 0 18 12 0 24z"/>
    </g>
    <g transform="translate(486 0)" fill="none" stroke="#9aa1ae" stroke-width="3" stroke-linecap="round" stroke-linejoin="round">
      <path d="M3 24h18M6 20 23 3a6 6 0 0 1 8 8L14 28 4 30z"/>
    </g>
    <g transform="translate(552 1)" fill="none" stroke="#9aa1ae" stroke-width="3" stroke-linecap="round" stroke-linejoin="round">
      <path d="M3 7h25M10 7V2h11v5M7 7l2 25h13l2-25M13 13v12M20 13v12"/>
    </g>

    <g transform="translate(0 86)">
      <rect width="284" height="98" rx="12" fill="#f7f8fb"/>
      <text x="20" y="39" font-size="22" font-weight="600" fill="#b6bbc6">下次</text>
      <text x="20" y="72" font-size="22" font-weight="600" fill="#7d8492">暂无</text>
    </g>
    <g transform="translate(300 86)">
      <rect width="284" height="98" rx="12" fill="#f7f8fb"/>
      <text x="20" y="39" font-size="22" font-weight="600" fill="#b6bbc6">上次</text>
      <text x="20" y="72" font-size="22" font-weight="600" fill="#7d8492">05/21 16:23</text>
    </g>
    <g transform="translate(0 200)">
      <rect width="284" height="98" rx="12" fill="#f7f8fb"/>
      <text x="20" y="39" font-size="22" font-weight="600" fill="#b6bbc6">会话</text>
      <text x="20" y="72" font-size="22" font-weight="600" fill="#7d8492">c78211c6</text>
    </g>
    <g transform="translate(300 200)">
      <rect width="284" height="98" rx="12" fill="#f7f8fb"/>
      <text x="20" y="39" font-size="22" font-weight="600" fill="#b6bbc6">最近</text>
      <text x="20" y="72" font-size="22" font-weight="600" fill="#7d8492">成功</text>
    </g>

    <g transform="translate(0 314)">
      <rect x="0" y="0" width="143" height="56" rx="14" fill="#ffffff" stroke="#e3e6ed" stroke-width="2"/>
      <text x="72" y="37" text-anchor="middle" font-size="23" font-weight="600" fill="#888f9e">打开会话</text>
    </g>
    <g transform="translate(443 314)">
      <rect x="0" y="0" width="141" height="56" rx="14" fill="#5266f6" filter="url(#cardShadow)"/>
      <text x="70" y="37" text-anchor="middle" font-size="23" font-weight="700" fill="#ffffff">立即运行</text>
    </g>
  </g>
</svg>
